<svg xmlns="http://www.w3.org/2000/svg" width="162.25" height="80" viewBox="0 0 162.25 80">
  <g id="グループ_63" data-name="グループ 63" transform="translate(-719 -82)">
    <g id="spacer" transform="translate(719 82)" fill="rgba(255,255,255,0)" stroke="rgba(0,0,0,0)" stroke-width="1">
      <rect width="162.25" height="80" stroke="none"/>
      <rect x="0.5" y="0.5" width="161.25" height="79" fill="none"/>
    </g>
    <g id="グループ_63-2" data-name="グループ 63">
      <path id="パス_84" data-name="パス 84" d="M11.85-6.15a1.725,1.725,0,0,0-.765-1.515,7.808,7.808,0,0,0-1.92-.915q-1.155-.39-2.49-.8a11.139,11.139,0,0,1-2.49-1.1,5.988,5.988,0,0,1-1.92-1.83,5.3,5.3,0,0,1-.765-3,5.641,5.641,0,0,1,.51-2.355A5.736,5.736,0,0,1,3.48-19.62,7.23,7.23,0,0,1,5.8-20.955,8.881,8.881,0,0,1,8.85-21.45a9.207,9.207,0,0,1,3.03.45,12.351,12.351,0,0,1,2.16.96,7.172,7.172,0,0,1,1.71,1.44l-2.7,2.85a5.09,5.09,0,0,0-1.05-.9,6.3,6.3,0,0,0-1.245-.63,4.464,4.464,0,0,0-1.6-.27,3.029,3.029,0,0,0-2.1.675A2.061,2.061,0,0,0,6.3-15.3a1.734,1.734,0,0,0,.765,1.5,7.466,7.466,0,0,0,1.92.93q1.155.39,2.49.8a11.139,11.139,0,0,1,2.49,1.1,5.988,5.988,0,0,1,1.92,1.83,5.3,5.3,0,0,1,.765,3,6.44,6.44,0,0,1-.525,2.61A5.9,5.9,0,0,1,14.6-1.455,7.309,7.309,0,0,1,12.1-.06,10.464,10.464,0,0,1,8.7.45,10.127,10.127,0,0,1,5.235-.09,11.659,11.659,0,0,1,2.76-1.29,9.358,9.358,0,0,1,.75-3l2.7-2.7A5.806,5.806,0,0,0,4.74-4.59a7.068,7.068,0,0,0,1.575.81A5.963,5.963,0,0,0,8.4-3.45a3.754,3.754,0,0,0,2.58-.78A2.478,2.478,0,0,0,11.85-6.15ZM39.9,0H35.4V-8.55h-9V0H21.9V-21h4.5v8.4h9V-21h4.5Zm6.6-21H51V0H46.5Z" transform="translate(810.25 133)"/>
      <path id="前面オブジェクトで型抜き_10" data-name="前面オブジェクトで型抜き 10" d="M61,40H0V0H61V18H53v6h8V40ZM31.75,10V22.45A9.092,9.092,0,0,0,32.44,26a8.787,8.787,0,0,0,1.921,2.85,8.984,8.984,0,0,0,2.894,1.905,9.981,9.981,0,0,0,7.29,0,8.979,8.979,0,0,0,2.9-1.905A8.77,8.77,0,0,0,49.36,26a9.077,9.077,0,0,0,.69-3.555V10h-4.5V22.45a5.114,5.114,0,0,1-.375,1.98,5.06,5.06,0,0,1-1,1.561A4.634,4.634,0,0,1,42.7,27.025a4.514,4.514,0,0,1-3.6,0,4.639,4.639,0,0,1-1.47-1.035,5.065,5.065,0,0,1-1.005-1.561,5.13,5.13,0,0,1-.374-1.98V10ZM13.45,25.3h0L10.75,28a9.4,9.4,0,0,0,2.011,1.71,11.7,11.7,0,0,0,2.475,1.2,10.174,10.174,0,0,0,3.465.54,10.508,10.508,0,0,0,3.4-.509,7.36,7.36,0,0,0,2.49-1.395,5.941,5.941,0,0,0,1.53-2.085,6.469,6.469,0,0,0,.525-2.61,5.315,5.315,0,0,0-.765-3,6.03,6.03,0,0,0-1.92-1.831,11.2,11.2,0,0,0-2.49-1.094c-.874-.265-1.712-.533-2.49-.8a7.483,7.483,0,0,1-1.92-.93,1.741,1.741,0,0,1-.765-1.5,2.071,2.071,0,0,1,.75-1.575,3.045,3.045,0,0,1,2.1-.675,4.482,4.482,0,0,1,1.6.27A6.36,6.36,0,0,1,22,14.35a5.116,5.116,0,0,1,1.05.9l2.7-2.849a7.182,7.182,0,0,0-1.71-1.44A12.341,12.341,0,0,0,21.88,10a9.254,9.254,0,0,0-3.03-.45,8.914,8.914,0,0,0-3.045.495A7.272,7.272,0,0,0,13.48,11.38a5.773,5.773,0,0,0-1.471,1.966A5.673,5.673,0,0,0,11.5,15.7a5.321,5.321,0,0,0,.765,3,6.013,6.013,0,0,0,1.92,1.83,11.206,11.206,0,0,0,2.49,1.1c.894.271,1.732.539,2.489.795a7.849,7.849,0,0,1,1.921.915,1.733,1.733,0,0,1,.765,1.515,2.485,2.485,0,0,1-.87,1.92,3.769,3.769,0,0,1-2.58.78,5.974,5.974,0,0,1-2.084-.33,7.058,7.058,0,0,1-1.575-.81A5.806,5.806,0,0,1,13.45,25.3ZM69,24H61V18h8v6Z" transform="translate(739 102)"/>
    </g>
  </g>
</svg>
